# xmcd
#
# Track frame offsets:
#	182
#	7155
#	27052
#	48300
#	65672
#	83095
#	97757
#	111782
#	129717
#	142047
#	153460
#	164755
#	175375
#
# Disc length: 2614 seconds
#
# Revision: 9
# Processed by: cddbd v1.5.2PL0 Copyright (c) Steve Scherf et al.
# Submitted via: EasyCDDAExtractor 15.3.0.1
#
DISCID=af0a340d
DTITLE=Luis Miguel - El Concierto - CD 2
DYEAR=1995
DGENRE=Latin
TTITLE0=Introduccion Guitarra
TTITLE1=Hasta Que Me Olvides
TTITLE2=Que Nivel De Mujer
TTITLE3=Historia De Un Amor
TTITLE4=Nosotros
TTITLE5=Somos Novios
TTITLE6=Sin Ti
TTITLE7=El Dia Que Me Quieras
TTITLE8=La Media Vuelta
TTITLE9=Si Nos Dejan
TTITLE10=Amaneci En Tus Brazos
TTITLE11=El Rey
TTITLE12=Sera Que No Me Amas
EXTD=YEAR: 1995
EXTT0=
EXTT1=
EXTT2=
EXTT3=
EXTT4=
EXTT5=
EXTT6=
EXTT7=
EXTT8=
EXTT9=
EXTT10=
EXTT11=
EXTT12=
PLAYORDER=
